<svg width="160" height="50" viewBox="0 0 160 50" fill="none" xmlns="http://www.w3.org/2000/svg">
<path fill-rule="evenodd" clip-rule="evenodd" d="M30.1299 23.8071C33.7639 25.0166 37.6153 22.9354 38.6883 19.1819L38.8627 18.572C39.9358 14.8188 37.8404 10.7583 34.2062 9.54873C30.5721 8.33918 26.7209 10.4203 25.6478 14.1737L25.4734 14.7837C24.4004 18.537 26.4957 22.5975 30.1299 23.8071Z" fill="#7C3AED"/>
<path fill-rule="evenodd" clip-rule="evenodd" d="M34.9925 7.69562C36.9078 8.33314 38.9373 7.23637 39.503 5.2583L39.5949 4.93687C40.1604 2.9587 39.0561 0.818974 37.1408 0.181449C35.2256 -0.455977 33.1959 0.640697 32.6304 2.61886L32.5386 2.9402C31.9731 4.91827 33.0773 7.05819 34.9925 7.69562Z" fill="#0284C7"/>
<path d="M49.1416 33.992C49.1416 36.0176 49.6314 37.9112 50.4884 39.5404C49.468 40.0248 48.7742 41.1697 48.7742 42.4468C48.7742 44.2082 50.0802 45.6173 51.7128 45.6173C52.8964 45.6173 53.9166 44.8686 54.3655 43.7678C55.9165 44.7366 57.6715 45.265 59.5897 45.265C65.3442 45.265 70.0378 40.2009 70.0378 33.9919C70.0378 27.783 65.3442 22.719 59.5897 22.719C57.6715 22.719 55.8757 23.2914 54.3655 24.2602V17.0825C54.3655 15.5413 53.182 14.2643 51.7535 14.2643C50.3251 14.2643 49.1415 15.5413 49.1415 17.0825L49.1416 33.992ZM54.3655 33.992C54.3655 30.8657 56.692 28.3556 59.5897 28.3556C62.4874 28.3556 64.8137 30.8657 64.8137 33.992C64.8137 37.1185 62.4873 39.6286 59.5897 39.6286C56.6919 39.6286 54.3655 37.1185 54.3655 33.992ZM84.4038 45.2651C85.8324 45.2651 87.016 43.988 87.016 42.4468C87.016 40.9056 85.8324 39.6286 84.4038 39.6286H81.7918C79.8328 39.6286 78.1596 38.5276 77.2616 36.8102H89.6279C91.0564 36.8102 92.24 35.5332 92.24 33.992C92.24 27.7831 87.5466 22.7191 81.7919 22.7191C76.0374 22.7191 71.3439 27.7831 71.3439 33.992C71.3439 40.201 76.0374 45.2651 81.7919 45.2651H84.4038ZM81.7918 28.3556C83.71 28.3556 85.4243 29.5005 86.322 31.1738H77.2616C78.1596 29.5005 79.8327 28.3556 81.7918 28.3556Z" fill="#EDE9FE"/>
<path d="M106.629 45.2628C108.057 45.2628 109.241 43.9857 109.241 42.4445C109.241 40.9033 108.057 39.6262 106.629 39.6262H104.017C102.058 39.6262 100.384 38.5253 99.4865 36.8079H111.853C113.281 36.8079 114.465 35.5309 114.465 33.9897C114.465 27.7808 109.772 22.7168 104.017 22.7168C98.2623 22.7168 93.5688 27.7808 93.5688 33.9897C93.5688 40.1987 98.2623 45.2628 104.017 45.2628H106.629ZM104.017 28.3533C105.935 28.3533 107.649 29.4982 108.547 31.1715H99.4865C100.384 29.4982 102.058 28.3533 104.017 28.3533ZM121.321 32.8449V25.535C121.321 23.9938 120.138 22.7168 118.709 22.7168C117.281 22.7168 116.097 23.9938 116.097 25.535V33.9897C116.097 34.7384 116.383 35.4429 116.873 35.9713L124.709 44.426C125.199 44.9985 125.893 45.2628 126.545 45.2628C127.199 45.2628 127.892 44.9985 128.382 44.426L136.218 35.9713C136.708 35.4429 136.994 34.7383 136.994 33.9897V25.535C136.994 23.9938 135.81 22.7168 134.382 22.7168C132.953 22.7168 131.77 23.9938 131.77 25.535V32.8449L126.545 38.4813L121.321 32.8449ZM151.686 45.2628C153.115 45.2628 154.298 43.9857 154.298 42.4445C154.298 40.9033 153.115 39.6262 151.686 39.6262H149.074C147.115 39.6262 145.442 38.5253 144.544 36.8079H156.91C158.339 36.8079 159.522 35.5309 159.522 33.9897C159.522 27.7808 154.829 22.7168 149.074 22.7168C143.32 22.7168 138.626 27.7808 138.626 33.9897C138.626 40.1987 143.32 45.2628 149.074 45.2628H151.686ZM149.074 28.3533C150.992 28.3533 152.707 29.4982 153.604 31.1715H144.544C145.442 29.4982 147.115 28.3533 149.074 28.3533Z" fill="#DDD6FE"/>
<path fill-rule="evenodd" clip-rule="evenodd" d="M0.499756 18.9109H15.1537C23.2134 18.9109 29.8075 25.6551 29.8075 33.8983V35.0125C29.8075 43.2557 23.2134 50 15.1537 50H4.92888C2.4928 50 0.499756 47.9615 0.499756 45.47V18.9109Z" fill="#EDE9FE"/>
<path fill-rule="evenodd" clip-rule="evenodd" d="M4.69223 5.38345H13.1149C18.0074 5.38345 22.0101 9.4774 22.0101 14.4811C22.0101 19.4851 18.0073 23.5788 13.1149 23.5788H0.502906V9.66805C0.502906 7.31146 2.388 5.38345 4.69223 5.38345Z" fill="#DDD6FE"/>
</svg>
