<?xml version="1.0" encoding="UTF-8"?>
<!DOCTYPE svg PUBLIC "-//W3C//DTD SVG 1.1//EN" "http://www.w3.org/Graphics/SVG/1.1/DTD/svg11.dtd">
<!-- Creator: CorelDRAW -->
<svg xmlns="http://www.w3.org/2000/svg" xml:space="preserve" width="165.879mm" height="51.0022mm" version="1.1" style="shape-rendering:geometricPrecision; text-rendering:geometricPrecision; image-rendering:optimizeQuality; fill-rule:evenodd; clip-rule:evenodd"
viewBox="0 0 2001.39 615.36"
 xmlns:xlink="http://www.w3.org/1999/xlink"
 xmlns:xodm="http://www.corel.com/coreldraw/odm/2003">
 <defs>
  <style type="text/css">
   <![CDATA[
    .fil1 {fill:#0284C7}
    .fil0 {fill:#7C3AED}
    .fil5 {fill:#DDD6FE}
    .fil4 {fill:#EDE9FE}
    .fil3 {fill:#DDD6FE;fill-rule:nonzero}
    .fil2 {fill:#EDE9FE;fill-rule:nonzero}
   ]]>
  </style>
 </defs>
 <g id="Camada_x0020_1">
  <metadata id="CorelCorpID_0Corel-Layer"/>
  <path class="fil0" d="M372.96 293l0 0c45.74,14.89 94.22,-10.73 107.73,-56.92l2.2 -7.51c13.51,-46.19 -12.87,-96.17 -58.61,-111.05l0 0c-45.74,-14.89 -94.22,10.73 -107.73,56.92l-2.2 7.51c-13.51,46.19 12.87,96.17 58.61,111.05z"/>
  <path class="fil1" d="M434.17 94.71l0 0c24.11,7.85 49.65,-5.65 56.77,-30l1.16 -3.96c7.12,-24.35 -6.78,-50.68 -30.89,-58.53l0 0c-24.11,-7.84 -49.66,5.65 -56.77,30l-1.16 3.96c-7.12,24.34 6.78,50.68 30.89,58.53z"/>
  <path class="fil2" d="M612.27 418.35c0,24.93 6.17,48.23 16.95,68.28 -12.84,5.96 -21.58,20.05 -21.58,35.77 0,21.68 16.44,39.02 36.99,39.02 14.9,0 27.74,-9.21 33.39,-22.76 19.52,11.92 41.61,18.43 65.76,18.43 72.43,0 131.51,-62.32 131.51,-138.74 0,-76.41 -59.08,-138.74 -131.51,-138.74 -24.15,0 -46.75,7.04 -65.76,18.97l0 -88.34c0,-18.97 -14.9,-34.68 -32.88,-34.68 -17.98,0 -32.88,15.72 -32.88,34.68l0 208.11zm65.76 0c0,-38.48 29.28,-69.37 65.76,-69.37 36.47,0 65.76,30.89 65.76,69.37 0,38.48 -29.28,69.37 -65.76,69.37 -36.47,0 -65.76,-30.89 -65.76,-69.37zm378.1 138.74c17.98,0 32.88,-15.72 32.88,-34.69 0,-18.97 -14.9,-34.68 -32.88,-34.68l-32.88 0c-24.66,0 -45.72,-13.55 -57.02,-34.69l155.66 0c17.98,0 32.88,-15.72 32.88,-34.68 0,-76.41 -59.08,-138.74 -131.51,-138.74 -72.43,0 -131.51,62.32 -131.51,138.74 0,76.41 59.08,138.74 131.51,138.74l32.88 0zm-32.88 -208.11c24.15,0 45.72,14.09 57.02,34.68l-114.05 0c11.3,-20.59 32.36,-34.68 57.02,-34.68z"/>
  <path class="fil3" d="M1335.6 557.09c17.98,0 32.88,-15.72 32.88,-34.69 0,-18.97 -14.9,-34.68 -32.88,-34.68l-32.88 0c-24.66,0 -45.72,-13.55 -57.02,-34.69l155.66 0c17.98,0 32.88,-15.72 32.88,-34.68 0,-76.41 -59.08,-138.74 -131.51,-138.74 -72.43,0 -131.51,62.32 -131.51,138.74 0,76.41 59.08,138.74 131.51,138.74l32.88 0zm-32.88 -208.11c24.15,0 45.72,14.09 57.02,34.68l-114.05 0c11.3,-20.59 32.37,-34.68 57.02,-34.68zm217.82 55.28l0 -89.96c0,-18.97 -14.9,-34.68 -32.88,-34.68 -17.98,0 -32.88,15.72 -32.88,34.68l0 104.05c0,9.21 3.6,17.88 9.76,24.39l98.64 104.05c6.16,7.05 14.9,10.3 23.12,10.3 8.22,0 16.95,-3.25 23.12,-10.3l98.64 -104.05c6.17,-6.5 9.76,-15.17 9.76,-24.39l0 -104.05c0,-18.97 -14.9,-34.68 -32.88,-34.68 -17.98,0 -32.88,15.72 -32.88,34.68l0 89.96c0,0 -65.76,69.37 -65.76,69.37l-65.76 -69.37zm382.21 152.83c17.98,0 32.88,-15.72 32.88,-34.69 0,-18.97 -14.9,-34.68 -32.88,-34.68l-32.88 0c-24.66,0 -45.72,-13.55 -57.02,-34.69l155.66 0c17.98,0 32.88,-15.72 32.88,-34.68 0,-76.41 -59.08,-138.74 -131.51,-138.74 -72.44,0 -131.51,62.32 -131.51,138.74 0,76.41 59.08,138.74 131.51,138.74l32.88 0zm-32.88 -208.11c24.14,0 45.72,14.09 57.02,34.68l-114.05 0c11.3,-20.59 32.36,-34.68 57.02,-34.68z"/>
  <path class="fil4" d="M-0 232.74l184.45 0c101.45,0 184.45,83 184.45,184.45l0 13.71c0,101.45 -83,184.45 -184.45,184.45l-128.7 0c-30.66,0 -55.75,-25.09 -55.75,-55.75l0 -326.87z"/>
  <path class="fil5" d="M52.77 66.26l106.02 0c61.58,0 111.97,50.38 111.97,111.97l0 0c0,61.58 -50.38,111.97 -111.97,111.97l-158.75 0 0 -171.2c0,-29 23.73,-52.73 52.73,-52.73z"/>
 </g>
</svg>
