<?xml version="1.0" encoding="UTF-8"?>
<!DOCTYPE svg PUBLIC "-//W3C//DTD SVG 1.1//EN" "http://www.w3.org/Graphics/SVG/1.1/DTD/svg11.dtd">
<!-- Creator: CorelDRAW -->
<svg xmlns="http://www.w3.org/2000/svg" xml:space="preserve" width="101.458mm" height="126.391mm" version="1.1" style="shape-rendering:geometricPrecision; text-rendering:geometricPrecision; image-rendering:optimizeQuality; fill-rule:evenodd; clip-rule:evenodd"
viewBox="0 0 717.16 893.39"
 xmlns:xlink="http://www.w3.org/1999/xlink"
 xmlns:xodm="http://www.corel.com/coreldraw/odm/2003">
 <defs>
  <style type="text/css">
   <![CDATA[
    .fil1 {fill:#0284C7}
    .fil0 {fill:#7C3AED}
    .fil3 {fill:#DDD6FE}
    .fil2 {fill:#EDE9FE}
   ]]>
  </style>
 </defs>
 <g id="Camada_x0020_1">
  <metadata id="CorelCorpID_0Corel-Layer"/>
  <path class="fil0" d="M541.48 425.38l0 0c66.41,21.61 136.79,-15.58 156.4,-82.64l3.19 -10.9c19.61,-67.06 -18.68,-139.62 -85.09,-161.23l0 0c-66.41,-21.61 -136.79,15.57 -156.4,82.64l-3.19 10.9c-19.61,67.06 18.68,139.62 85.09,161.23z"/>
  <path class="fil1" d="M630.34 137.5l0 0c35,11.39 72.09,-8.21 82.43,-43.55l1.68 -5.74c10.33,-35.34 -9.85,-73.58 -44.85,-84.97l0 0c-35,-11.39 -72.09,8.21 -82.43,43.55l-1.68 5.74c-10.33,35.34 9.84,73.58 44.85,84.97z"/>
  <path class="fil2" d="M-0 337.9l267.8 0c147.29,0 267.8,120.51 267.8,267.8l0 19.91c0,147.29 -120.51,267.8 -267.8,267.8l-186.85 0c-44.52,0 -80.94,-36.42 -80.94,-80.94l0 -474.55z"/>
  <path class="fil3" d="M76.62 96.19l153.92 0c89.41,0 162.56,73.15 162.56,162.56l0 0c0,89.41 -73.15,162.56 -162.56,162.56l-230.48 0 0 -248.56c0,-42.11 34.45,-76.56 76.56,-76.56z"/>
 </g>
</svg>
