<svg width="242" height="266" viewBox="0 0 242 266" fill="none" xmlns="http://www.w3.org/2000/svg">
<g clip-path="url(#clip0_613_172)">
<path d="M168.043 53.9656C151.267 51.2854 132.164 49.8552 112.268 49.8552C94.0607 49.8552 76.5188 51.0512 60.8192 53.3063C60.8229 53.0649 60.8264 52.8236 60.8371 52.5822C61.2533 38.5723 67.1269 25.2811 77.2024 15.5494C87.2779 5.81771 100.756 0.417574 114.756 0.5032C128.756 0.588826 142.167 6.15342 152.123 16.0076C162.079 25.8618 167.79 39.2239 168.035 53.2379C168.039 53.4828 168.043 53.7242 168.043 53.9656Z" fill="#DDD6FE"/>
<g opacity="0.1">
<path d="M121.462 0.483201C114.016 -0.523694 106.442 0.0469848 99.2301 2.15825C92.0184 4.26951 85.3303 7.87425 79.5993 12.7388C73.8682 17.6034 69.2221 23.6193 65.962 30.3966C62.7019 37.1738 60.9007 44.5613 60.675 52.0801C60.6641 52.3214 60.6606 52.5628 60.657 52.8042C65.3212 52.1342 70.1512 51.5601 75.1098 51.0807C75.7163 38.5547 80.6839 26.6365 89.1508 17.3942C97.6177 8.15196 109.049 2.16888 121.462 0.483201Z" fill="#350B7B"/>
</g>
<path d="M191.497 58.2237C183.775 56.1279 175.942 54.4634 168.035 53.2379C155.076 51.2275 142.012 49.9705 128.907 49.4734C123.448 49.25 117.889 49.1348 112.268 49.1348C107.814 49.1348 103.395 49.2068 99.0372 49.3509C86.2545 49.729 73.502 50.8077 60.8371 52.5823C51.462 53.8747 42.1777 55.7589 33.0399 58.2237C11.7341 64.1208 0 72.0245 0 80.4758C0 88.927 11.7342 96.8307 33.0399 102.728C48.0235 106.878 66.4973 109.706 86.6266 111.003C94.9352 111.543 103.524 111.817 112.268 111.817C121.041 111.817 129.659 111.539 137.993 110.999C156.312 109.814 173.26 107.361 187.445 103.794C187.521 103.773 187.593 103.755 187.668 103.737C188.625 103.499 189.568 103.25 190.5 103.002C190.835 102.908 191.166 102.818 191.497 102.728C191.515 102.72 191.535 102.714 191.554 102.71C191.871 102.623 192.184 102.533 192.497 102.447C193.123 102.267 193.742 102.09 194.35 101.907C194.379 101.899 194.404 101.892 194.429 101.885C194.958 101.726 195.477 101.568 195.991 101.409C196.412 101.276 196.829 101.146 197.243 101.013C197.546 100.916 197.844 100.819 198.139 100.721C198.355 100.649 198.567 100.581 198.776 100.509C199.06 100.415 199.345 100.318 199.625 100.221C199.744 100.181 199.863 100.141 199.978 100.098C200.248 100.008 200.511 99.9144 200.773 99.8207C201.057 99.7198 201.342 99.6154 201.622 99.5145C201.856 99.4317 202.09 99.3452 202.32 99.2587C202.515 99.1831 202.706 99.111 202.9 99.039C203.429 98.8409 203.947 98.6355 204.458 98.4338C204.713 98.3293 204.969 98.2285 205.221 98.124C205.469 98.0231 205.721 97.9186 205.966 97.8142C206.369 97.6448 206.764 97.4755 207.153 97.3062C207.34 97.2198 207.531 97.1369 207.714 97.0577C207.855 96.9928 207.992 96.9316 208.132 96.8668C208.233 96.8235 208.333 96.7767 208.431 96.7299C208.794 96.5641 209.154 96.3948 209.506 96.2255C210.859 95.5771 212.122 94.9143 213.295 94.237C220.654 90.0186 224.537 85.339 224.537 80.4758C224.537 72.0245 212.803 64.1208 191.497 58.2237ZM191.302 102.036C176.301 106.19 157.777 109.018 137.593 110.304C129.386 110.826 120.901 111.096 112.268 111.096C103.665 111.096 95.2085 110.83 87.026 110.307C66.8104 109.025 48.2574 106.197 33.2343 102.036C12.2667 96.2291 0.719669 88.574 0.719669 80.4758C0.720841 79.7602 0.810304 79.0475 0.986031 78.3539C2.82105 71.0482 14.1091 64.2109 33.2343 58.9153C42.303 56.4698 51.5161 54.5964 60.8192 53.3064C73.5603 51.5218 86.3898 50.4394 99.2495 50.0642C103.539 49.9237 107.878 49.854 112.268 49.8552C117.813 49.8552 123.297 49.9669 128.688 50.1831C141.868 50.6757 155.009 51.9387 168.043 53.9656C175.881 55.1856 183.646 56.8381 191.302 58.9153C210.424 64.2109 221.708 71.0446 223.547 78.3467C223.726 79.0423 223.816 79.7576 223.817 80.4758C223.817 88.574 212.27 96.2291 191.302 102.036Z" fill="#EDE9FE"/>
<path d="M224.332 80.8035C224.332 85.6164 220.37 90.1698 213.295 94.2369C212.119 94.9142 210.852 95.577 209.506 96.2255C209.154 96.3948 208.794 96.5641 208.431 96.7298C208.333 96.7766 208.233 96.8235 208.132 96.8667C207.991 96.9315 207.855 96.9928 207.714 97.0576C207.531 97.1369 207.34 97.2197 207.153 97.3062C206.764 97.4755 206.369 97.6448 205.966 97.8141C205.721 97.9186 205.469 98.0231 205.221 98.1239C204.969 98.2284 204.713 98.3293 204.458 98.4337C203.947 98.6355 203.429 98.8408 202.9 99.0389C202.706 99.111 202.515 99.183 202.32 99.2587C202.09 99.3451 201.856 99.4316 201.622 99.5145C201.342 99.6153 201.057 99.7198 200.773 99.8207C200.51 99.9143 200.248 100.008 199.978 100.098C199.863 100.141 199.744 100.181 199.625 100.221C199.345 100.318 199.06 100.415 198.776 100.509C198.567 100.581 198.355 100.649 198.139 100.721C197.844 100.819 197.545 100.916 197.243 101.013C196.829 101.146 196.412 101.276 195.991 101.409C195.477 101.568 194.958 101.726 194.429 101.885C194.404 101.892 194.379 101.899 194.35 101.906C193.742 102.09 193.123 102.267 192.497 102.447C192.184 102.533 191.871 102.623 191.554 102.71C191.535 102.714 191.515 102.72 191.497 102.728C191.166 102.818 190.835 102.908 190.5 103.002C189.572 103.247 188.625 103.495 187.668 103.736C187.592 103.754 187.52 103.773 187.445 103.794C173.645 107.245 156.715 109.76 137.979 110.974C129.771 111.503 121.214 111.784 112.423 111.784C103.553 111.784 94.9242 111.5 86.6517 110.959C37.268 107.735 0.514587 95.4581 0.514587 80.8035C0.518476 79.9118 0.654242 79.0256 0.917468 78.1738C0.93908 78.235 0.960688 78.2926 0.985992 78.3539C6.12066 91.8557 42.5613 102.767 89.8435 105.43C97.0869 105.84 104.59 106.053 112.268 106.053C119.98 106.053 127.511 105.837 134.783 105.426C182.026 102.753 218.43 91.8377 223.547 78.3467C223.634 78.1305 223.709 77.9144 223.774 77.6982C224.139 78.693 224.327 79.7438 224.332 80.8035Z" fill="#EDE9FE"/>
<path d="M32.9857 76.9259C26.9971 76.9259 20.6324 75.636 20.6324 73.2454C20.6324 70.8547 26.9971 69.5649 32.9857 69.5649C38.9744 69.5649 45.3391 70.8547 45.3391 73.2454C45.3391 75.636 38.9744 76.9259 32.9857 76.9259ZM32.9857 70.2854C26.1298 70.2854 21.3521 71.8454 21.3521 73.2454C21.3521 74.6454 26.1298 76.2054 32.9857 76.2054C39.8417 76.2054 44.6194 74.6454 44.6194 73.2454C44.6194 71.8454 39.8417 70.2854 32.9857 70.2854Z" fill="#EDE9FE"/>
<path d="M58.534 93.8572C52.5454 93.8572 46.1807 92.5674 46.1807 90.1767C46.1807 87.7861 52.5454 86.4962 58.534 86.4962C64.5226 86.4962 70.8874 87.7861 70.8874 90.1767C70.8874 92.5674 64.5226 93.8572 58.534 93.8572ZM58.534 87.2167C51.6781 87.2167 46.9003 88.7767 46.9003 90.1767C46.9003 91.5767 51.6781 93.1368 58.534 93.1368C65.3899 93.1368 70.1677 91.5767 70.1677 90.1767C70.1677 88.7767 65.3899 87.2167 58.534 87.2167Z" fill="#EDE9FE"/>
<path d="M191.313 76.9259C185.324 76.9259 178.96 75.636 178.96 73.2454C178.96 70.8547 185.324 69.5649 191.313 69.5649C197.302 69.5649 203.666 70.8547 203.666 73.2454C203.666 75.636 197.302 76.9259 191.313 76.9259ZM191.313 70.2854C184.457 70.2854 179.679 71.8454 179.679 73.2454C179.679 74.6454 184.457 76.2054 191.313 76.2054C198.169 76.2054 202.947 74.6454 202.947 73.2454C202.947 71.8454 198.169 70.2854 191.313 70.2854Z" fill="#EDE9FE"/>
<path d="M165.765 93.8572C159.776 93.8572 153.411 92.5674 153.411 90.1767C153.411 87.7861 159.776 86.4962 165.765 86.4962C171.753 86.4962 178.118 87.7861 178.118 90.1767C178.118 92.5674 171.753 93.8572 165.765 93.8572ZM165.765 87.2167C158.909 87.2167 154.131 88.7767 154.131 90.1767C154.131 91.5767 158.909 93.1368 165.765 93.1368C172.621 93.1368 177.398 91.5767 177.398 90.1767C177.398 88.7767 172.621 87.2167 165.765 87.2167Z" fill="#EDE9FE"/>
<path d="M112.149 101.783C106.161 101.783 99.796 100.493 99.796 98.102C99.796 95.7114 106.161 94.4215 112.149 94.4215C118.138 94.4215 124.503 95.7114 124.503 98.102C124.503 100.493 118.138 101.783 112.149 101.783ZM112.149 95.142C105.293 95.142 100.516 96.702 100.516 98.102C100.516 99.502 105.293 101.062 112.149 101.062C119.005 101.062 123.783 99.502 123.783 98.102C123.783 96.702 119.005 95.142 112.149 95.142Z" fill="#EDE9FE"/>
<path d="M121.256 177.497C129.605 177.497 136.374 170.721 136.374 162.362C136.374 154.004 129.605 147.228 121.256 147.228C112.907 147.228 106.139 154.004 106.139 162.362C106.139 170.721 112.907 177.497 121.256 177.497Z" fill="#3E3E3E"/>
<path d="M115.508 172.306L108.15 175.995L110.207 180.106L117.564 176.417L115.508 172.306Z" fill="#3E3E3E"/>
<path d="M111.177 179.688C111.613 179.026 110.536 177.545 108.771 176.38C107.007 175.215 105.222 174.808 104.786 175.47C104.35 176.133 105.427 177.614 107.191 178.779C108.956 179.944 110.74 180.351 111.177 179.688Z" fill="#3E3E3E"/>
<path d="M127.005 172.306L124.948 176.417L132.306 180.106L134.362 175.995L127.005 172.306Z" fill="#3E3E3E"/>
<path d="M135.321 178.779C137.086 177.614 138.163 176.133 137.726 175.47C137.29 174.808 135.506 175.215 133.741 176.38C131.976 177.545 130.9 179.026 131.336 179.688C131.772 180.351 133.556 179.944 135.321 178.779Z" fill="#3E3E3E"/>
<path d="M120.198 163.833C123.051 163.833 125.365 161.517 125.365 158.66C125.365 155.804 123.051 153.488 120.198 153.488C117.344 153.488 115.031 155.804 115.031 158.66C115.031 161.517 117.344 163.833 120.198 163.833Z" fill="white"/>
<path d="M121.455 157.669C122.124 156.998 122.121 155.907 121.446 155.232C120.772 154.557 119.682 154.553 119.012 155.223C118.342 155.894 118.346 156.985 119.021 157.66C119.695 158.335 120.785 158.339 121.455 157.669Z" fill="#0284C7"/>
<path d="M133.182 145.897C133.409 140.294 128.586 135.549 122.408 135.297C116.231 135.046 111.038 139.385 110.811 144.988C110.584 150.591 114.878 151.864 121.055 152.115C127.233 152.366 132.954 151.5 133.182 145.897Z" fill="#6C63FF"/>
<path d="M141.896 170.287C142.89 169.433 141.492 166.169 138.773 162.998C136.054 159.827 133.043 157.949 132.049 158.804C131.054 159.658 132.453 162.922 135.172 166.093C137.891 169.264 140.902 171.142 141.896 170.287Z" fill="#3E3E3E"/>
<path d="M107.383 166.093C110.102 162.922 111.5 159.658 110.506 158.804C109.512 157.949 106.501 159.827 103.782 162.998C101.063 166.169 99.6645 169.433 100.659 170.287C101.653 171.142 104.664 169.264 107.383 166.093Z" fill="#3E3E3E"/>
<path d="M125.408 168.327C125.572 169.226 125.372 170.154 124.852 170.906C124.332 171.659 123.535 172.173 122.636 172.337C121.738 172.501 120.811 172.3 120.059 171.78C119.308 171.259 118.794 170.462 118.631 169.562L118.629 169.555C118.291 167.681 119.738 167.018 121.61 166.679C123.482 166.339 125.069 166.453 125.408 168.327Z" fill="white"/>
<path d="M95.7159 178.461C95.5251 178.461 95.342 178.385 95.2071 178.25C95.0721 178.115 94.9963 177.932 94.9963 177.741V135.232C94.9963 135.041 95.0721 134.858 95.2071 134.723C95.342 134.588 95.5251 134.512 95.7159 134.512C95.9068 134.512 96.0899 134.588 96.2248 134.723C96.3598 134.858 96.4356 135.041 96.4356 135.232V177.741C96.4356 177.932 96.3598 178.115 96.2248 178.25C96.0899 178.385 95.9068 178.461 95.7159 178.461Z" fill="#CCCCCC"/>
<path d="M84.9209 216.647C84.7301 216.647 84.547 216.571 84.4121 216.436C84.2771 216.301 84.2013 216.118 84.2013 215.926V184.946C84.2013 184.755 84.2771 184.571 84.412 184.436C84.547 184.301 84.7301 184.225 84.9209 184.225C85.1118 184.225 85.2949 184.301 85.4298 184.436C85.5648 184.571 85.6406 184.755 85.6406 184.946V215.926C85.6406 216.118 85.5648 216.301 85.4298 216.436C85.2948 216.571 85.1118 216.647 84.9209 216.647Z" fill="#CCCCCC"/>
<path d="M112.628 191.07C112.437 191.07 112.254 190.994 112.119 190.859C111.984 190.724 111.909 190.54 111.909 190.349V147.841C111.909 147.65 111.984 147.467 112.119 147.331C112.254 147.196 112.437 147.12 112.628 147.12C112.819 147.12 113.002 147.196 113.137 147.331C113.272 147.467 113.348 147.65 113.348 147.841V190.349C113.348 190.54 113.272 190.724 113.137 190.859C113.002 190.994 112.819 191.07 112.628 191.07Z" fill="#CCCCCC"/>
<path d="M102.193 221.69C102.002 221.69 101.819 221.614 101.684 221.479C101.549 221.344 101.473 221.161 101.473 220.97V203.678C101.473 203.487 101.549 203.304 101.684 203.169C101.819 203.034 102.002 202.958 102.193 202.958C102.384 202.958 102.567 203.034 102.702 203.169C102.837 203.304 102.913 203.487 102.913 203.678V220.97C102.913 221.161 102.837 221.344 102.702 221.479C102.567 221.614 102.384 221.69 102.193 221.69Z" fill="#CCCCCC"/>
<path d="M116.946 133.071C116.755 133.071 116.572 132.995 116.437 132.86C116.302 132.725 116.227 132.542 116.227 132.35V115.059C116.227 114.868 116.302 114.685 116.437 114.549C116.572 114.414 116.755 114.338 116.946 114.338C117.137 114.338 117.32 114.414 117.455 114.549C117.59 114.685 117.666 114.868 117.666 115.059V132.35C117.666 132.542 117.59 132.725 117.455 132.86C117.32 132.995 117.137 133.071 116.946 133.071Z" fill="#CCCCCC"/>
<path d="M80.9627 140.636C80.7719 140.636 80.5888 140.56 80.4539 140.425C80.3189 140.29 80.2431 140.107 80.2431 139.916V122.624C80.2431 122.433 80.3189 122.25 80.4539 122.115C80.5888 121.979 80.7719 121.904 80.9627 121.904C81.1536 121.904 81.3367 121.979 81.4716 122.115C81.6066 122.25 81.6824 122.433 81.6824 122.624V139.916C81.6824 140.107 81.6066 140.29 81.4716 140.425C81.3367 140.56 81.1536 140.636 80.9627 140.636Z" fill="#CCCCCC"/>
<path d="M143.574 142.437C143.383 142.437 143.2 142.361 143.065 142.226C142.93 142.091 142.854 141.908 142.854 141.717V124.425C142.854 124.234 142.93 124.051 143.065 123.916C143.2 123.781 143.383 123.705 143.574 123.705C143.765 123.705 143.948 123.781 144.083 123.916C144.218 124.051 144.294 124.234 144.294 124.425V141.717C144.294 141.908 144.218 142.091 144.083 142.226C143.948 142.361 143.765 142.437 143.574 142.437Z" fill="#CCCCCC"/>
<path d="M142.135 196.473C141.944 196.473 141.761 196.398 141.626 196.262C141.491 196.127 141.415 195.944 141.415 195.753V174.859C141.415 174.668 141.491 174.485 141.626 174.35C141.761 174.214 141.944 174.138 142.135 174.138C142.325 174.138 142.509 174.214 142.643 174.35C142.778 174.485 142.854 174.668 142.854 174.859V195.753C142.854 195.944 142.778 196.127 142.643 196.262C142.509 196.398 142.325 196.473 142.135 196.473Z" fill="#CCCCCC"/>
<path d="M127.741 214.846C127.55 214.846 127.367 214.77 127.232 214.635C127.097 214.5 127.022 214.316 127.022 214.125V183.144C127.022 182.953 127.097 182.77 127.232 182.635C127.367 182.5 127.55 182.424 127.741 182.424C127.932 182.424 128.115 182.5 128.25 182.635C128.385 182.77 128.461 182.953 128.461 183.144V214.125C128.461 214.316 128.385 214.5 128.25 214.635C128.115 214.77 127.932 214.846 127.741 214.846Z" fill="#CCCCCC"/>
<path d="M130.62 161.89C130.429 161.89 130.246 161.814 130.111 161.679C129.976 161.544 129.9 161.361 129.9 161.17V118.661C129.9 118.47 129.976 118.287 130.111 118.152C130.246 118.017 130.429 117.941 130.62 117.941C130.811 117.941 130.994 118.017 131.129 118.152C131.264 118.287 131.34 118.47 131.34 118.661V161.17C131.34 161.361 131.264 161.544 131.129 161.679C130.994 161.814 130.811 161.89 130.62 161.89Z" fill="#CCCCCC"/>
<path d="M218.849 252.346C219.879 251.482 218.487 248.12 215.74 244.835C212.992 241.55 209.93 239.587 208.9 240.45C207.87 241.314 209.262 244.676 212.01 247.961C214.757 251.246 217.819 253.209 218.849 252.346Z" fill="#3E3E3E"/>
<path d="M203.951 255.88H199.243V264.325H203.951V255.88Z" fill="#3E3E3E"/>
<path d="M194.535 255.88H189.827V264.325H194.535V255.88Z" fill="#3E3E3E"/>
<path d="M200.028 265.896C202.194 265.896 203.951 265.236 203.951 264.423C203.951 263.61 202.194 262.95 200.028 262.95C197.861 262.95 196.104 263.61 196.104 264.423C196.104 265.236 197.861 265.896 200.028 265.896Z" fill="#3E3E3E"/>
<path d="M190.612 265.699C192.778 265.699 194.535 265.04 194.535 264.227C194.535 263.413 192.778 262.754 190.612 262.754C188.445 262.754 186.688 263.413 186.688 264.227C186.688 265.04 188.445 265.699 190.612 265.699Z" fill="#3E3E3E"/>
<path d="M186.938 239.829C187.513 238.614 184.846 236.141 180.979 234.305C177.113 232.469 173.511 231.966 172.936 233.181C172.36 234.396 175.028 236.87 178.894 238.706C182.761 240.541 186.362 241.045 186.938 239.829Z" fill="#3E3E3E"/>
<path d="M241.64 266H156.719C156.624 266 156.532 265.962 156.465 265.895C156.397 265.827 156.359 265.735 156.359 265.64C156.359 265.544 156.397 265.453 156.465 265.385C156.532 265.317 156.624 265.28 156.719 265.28H241.64C241.736 265.28 241.827 265.317 241.895 265.385C241.962 265.453 242 265.544 242 265.64C242 265.735 241.962 265.827 241.895 265.895C241.827 265.962 241.736 266 241.64 266Z" fill="#DDD6FE"/>
<path d="M212.093 248.61C214.8 240.481 210.412 231.695 202.292 228.986C194.173 226.276 185.396 230.669 182.69 238.798C179.983 246.927 184.371 255.713 192.491 258.423C200.611 261.132 209.387 256.739 212.093 248.61Z" fill="#3E3E3E"/>
<path d="M192.526 224.202C193.909 218.623 200.018 215.34 206.169 216.869C212.32 218.398 216.184 224.16 214.801 229.739C213.417 235.318 208.826 235.336 202.675 233.807C196.524 232.278 191.142 229.781 192.526 224.202Z" fill="#0284C7"/>
<path d="M195.075 245.603C197.928 245.603 200.241 243.287 200.241 240.43C200.241 237.574 197.928 235.258 195.075 235.258C192.221 235.258 189.908 237.574 189.908 240.43C189.908 243.287 192.221 245.603 195.075 245.603Z" fill="white"/>
<path d="M192.951 240.301C193.902 240.301 194.673 239.529 194.673 238.576C194.673 237.624 193.902 236.852 192.951 236.852C192 236.852 191.229 237.624 191.229 238.576C191.229 239.529 192 240.301 192.951 240.301Z" fill="#6C63FF"/>
<path d="M195.03 253.391C196.223 253.391 197.189 252.424 197.189 251.23C197.189 250.036 196.223 249.069 195.03 249.069C193.838 249.069 192.871 250.036 192.871 251.23C192.871 252.424 193.838 253.391 195.03 253.391Z" fill="white"/>
</g>
<defs>
<clipPath id="clip0_613_172">
<rect width="242" height="266" fill="white"/>
</clipPath>
</defs>
</svg>
